<svg width="177" height="46" viewBox="0 0 177 46" fill="none" xmlns="http://www.w3.org/2000/svg">
<rect x="0.5" y="0.5" width="176" height="45" rx="1.5" fill="#151515" stroke="url(#paint0_linear_317_73)"/>
<path d="M9 3.25H172C172.966 3.25 173.75 4.0335 173.75 5V16.75H3.25V9C3.25 5.82436 5.82436 3.25 9 3.25Z" fill="url(#paint1_linear_317_73)" stroke="url(#paint2_linear_317_73)" stroke-width="0.5"/>
<path d="M3 17H174V41C174 42.1046 173.105 43 172 43H9C5.68629 43 3 40.3137 3 37V17Z" fill="url(#paint3_linear_317_73)"/>
<defs>
<linearGradient id="paint0_linear_317_73" x1="177" y1="-9.0419e-06" x2="24.9233" y2="88.721" gradientUnits="userSpaceOnUse">
<stop stop-color="#28382A"/>
<stop offset="1" stop-color="#5B5B5B"/>
</linearGradient>
<linearGradient id="paint1_linear_317_73" x1="3" y1="10" x2="174" y2="10" gradientUnits="userSpaceOnUse">
<stop/>
<stop offset="1" stop-color="#3A3A3A"/>
</linearGradient>
<linearGradient id="paint2_linear_317_73" x1="3" y1="10" x2="174" y2="10" gradientUnits="userSpaceOnUse">
<stop stop-color="#242424"/>
<stop offset="1" stop-color="#9F9F9F"/>
</linearGradient>
<linearGradient id="paint3_linear_317_73" x1="3" y1="30" x2="174" y2="30" gradientUnits="userSpaceOnUse">
<stop stop-color="#464646"/>
<stop offset="1" stop-color="#C3C3C3"/>
</linearGradient>
</defs>
</svg>
